<svg xmlns="http://www.w3.org/2000/svg" width="17.143" height="20" viewBox="0 0 17.143 20">
  <g id="logout" transform="translate(-4.5 -2.25)">
    <path id="Path_2696" data-name="Path 2696" d="M5.929,22.25H14.5a1.43,1.43,0,0,0,1.429-1.429V18.679H14.5v2.143H5.929V3.679H14.5V5.821h1.429V3.679A1.43,1.43,0,0,0,14.5,2.25H5.929A1.43,1.43,0,0,0,4.5,3.679V20.821A1.43,1.43,0,0,0,5.929,22.25Z" fill="#545758"/>
    <path id="Path_2697" data-name="Path 2697" d="M18.811,18.811l2.562-2.561H11.25V14.821H21.373L18.812,12.26l1.01-1.01,4.286,4.286-4.286,4.286Z" transform="translate(-2.464 -3.286)" fill="#545758"/>
  </g>
</svg>
