<svg xmlns="http://www.w3.org/2000/svg" height="24" viewBox="0 -960 960 960" width="24"><path d="M619.539-109.231 477.231-251.538l28.308-28.308 114 114 227.538-227.539 28.308 28.308-255.846 255.846ZM480-520l307.692-200H172.308L480-520Zm0 44.616L160-684.615v420q0 10.769 6.923 17.692T184.615-240H376l40 40H184.615Q157-200 138.5-218.5 120-237 120-264.615v-430.77Q120-723 138.5-741.5 157-760 184.615-760h590.77Q803-760 821.5-741.5 840-723 840-695.385v197.077l-40 40v-226.307L480-475.384Zm0 13.076ZM480-520Zm0 44.616Z"/></svg>