<svg xmlns="http://www.w3.org/2000/svg" width="20" height="20.542" viewBox="0 0 20 20.542">
  <g id="settings" transform="translate(-2.715 -2.295)">
    <path id="Path_2694" data-name="Path 2694" d="M20.8,13.125V12l1.413-1.236A1.471,1.471,0,0,0,22.5,8.887L20.759,5.944a1.483,1.483,0,0,0-1.743-.662l-1.788.6a8.35,8.35,0,0,0-.964-.552l-.375-1.854a1.471,1.471,0,0,0-1.471-1.184H10.974A1.471,1.471,0,0,0,9.5,3.479L9.127,5.333a8.446,8.446,0,0,0-.971.552L6.405,5.252a1.471,1.471,0,0,0-.47-.044,1.471,1.471,0,0,0-1.273.736L2.926,8.887a1.471,1.471,0,0,0,.3,1.847l1.39,1.273v1.125l-1.39,1.236a1.471,1.471,0,0,0-.3,1.876l1.736,2.943a1.483,1.483,0,0,0,1.743.662l1.788-.6a8.351,8.351,0,0,0,.964.552l.375,1.854A1.471,1.471,0,0,0,11,22.836h3.473a1.471,1.471,0,0,0,1.471-1.184l.375-1.854a8.447,8.447,0,0,0,.971-.552l1.781.6a1.483,1.483,0,0,0,1.743-.662L22.5,16.244a1.471,1.471,0,0,0-.3-1.847Zm-1.317,5.327L16.963,17.6a6.518,6.518,0,0,1-1.994,1.155l-.522,2.641H10.975l-.523-2.612a6.886,6.886,0,0,1-1.987-1.155l-2.53.824L4.2,15.508l2-1.766a6.548,6.548,0,0,1,0-2.3l-2-1.817L5.935,6.68l2.524.853a6.518,6.518,0,0,1,1.994-1.155l.522-2.641h3.473l.523,2.612A6.886,6.886,0,0,1,16.956,7.5l2.53-.824,1.736,2.943-2,1.766a6.548,6.548,0,0,1,0,2.3l2,1.817Z" fill="#545758"/>
    <path id="Path_2695" data-name="Path 2695" d="M15.664,20.079A4.37,4.37,0,1,1,18.8,18.8,4.414,4.414,0,0,1,15.664,20.079Zm0-7.357a2.877,2.877,0,1,0,2.1.842,2.877,2.877,0,0,0-2.1-.842Z" transform="translate(-2.953 -3.099)" fill="#545758"/>
  </g>
</svg>
